<?xml version="1.0" encoding="UTF-8"?>
<svg width="12px" height="14px" viewBox="0 0 12 14" version="1.1" xmlns="http://www.w3.org/2000/svg" xmlns:xlink="http://www.w3.org/1999/xlink">
<!-- Generator: Sketch 56.3 (81716) - https://sketch.com -->
  <title>search</title>
  <desc>Created with Sketch.</desc>
  <g id="Page-1" stroke="none" stroke-width="1" fill="none" fill-rule="evenodd">
    <g id="search" fill="#000000" fill-rule="nonzero">
      <g id="noun_Search_197118" transform="translate(6.000000, 7.000000) scale(-1, 1) translate(-6.000000, -7.000000) ">
        <path d="M10.8164384,1.84786463 C9.99452057,0.852860598 8.82739723,0.236905721 7.52876712,0.0947622884 C4.8,-0.221112007 2.38356165,1.67413376 2.07123288,4.24850927 C1.92328767,5.49621273 2.2849315,6.7439162 3.10684931,7.72312651 C3.27123288,7.9284448 3.45205479,8.11796938 3.64931507,8.27590655 L0.263013699,12.5875906 C0.0657534247,12.8402901 0.115068493,13.2035455 0.378082191,13.3930701 C0.493150685,13.4720387 0.608219178,13.5036261 0.739726028,13.5036261 C0.920547943,13.5036261 1.10136987,13.4246576 1.21643835,13.2667204 L4.63561644,8.9234488 C5.17808219,9.20773568 5.76986301,9.38146654 6.39452055,9.44464146 C6.57534247,9.46043511 6.77260274,9.47622884 6.95342466,9.47622884 C9.45205483,9.47622884 11.5561644,7.67574537 11.8356165,5.29089444 C12,4.05898469 11.6383562,2.82707494 10.8164384,1.84786463 Z M10.6520548,5.19613215 C10.4219178,7.13875906 8.61369866,8.57598708 6.54246575,8.33908139 C5.55616438,8.22852538 4.66849315,7.75471394 4.06027397,7.01240934 C3.43561644,6.27010475 3.17260274,5.33827558 3.27123288,4.3906527 C3.4849315,2.59016922 5.0630137,1.23190975 6.95342466,1.23190975 C7.10136987,1.23190975 7.23287671,1.24770346 7.38082191,1.24770346 C8.36712329,1.35825947 9.25479454,1.83207091 9.86301369,2.57437551 C10.4876712,3.3166801 10.7671233,4.24850927 10.6520548,5.19613215 Z" id="Shape"></path>
      </g>
    </g>
  </g>
</svg>
